<svg xmlns="http://www.w3.org/2000/svg" width="192" height="192" viewBox="0 0 192 192">
<g>
<path d="M 135.03 174.55 C119.79,176.85 107.21,176.10 92.29,172.00 C77.32,167.90 66.00,159.71 66.00,153.00 C66.00,150.05 65.91,150.00 60.75,149.98 C57.86,149.97 52.52,149.33 48.88,148.56 C30.70,144.71 17.12,131.81 10.37,112.00 C7.47,103.46 7.71,83.02 10.84,73.00 C19.14,46.45 38.17,26.94 63.50,19.01 C72.46,16.21 94.83,15.12 105.40,16.98 C120.98,19.71 135.06,27.06 147.34,38.87 C165.30,56.14 175.98,82.69 176.00,110.07 C176.00,119.25 177.45,127.57 180.03,133.26 C182.56,138.82 182.51,145.31 179.91,150.68 C174.67,161.51 156.14,171.37 135.03,174.55 ZM 109.00 168.39 C116.52,169.31 134.68,168.02 142.50,166.01 C153.93,163.07 165.82,157.00 170.85,151.55 C175.78,146.20 176.24,142.17 172.88,133.79 C171.37,130.00 170.52,124.81 169.90,115.50 C169.42,108.35 168.55,99.12 167.95,95.00 C163.67,65.52 147.43,41.67 123.50,29.75 C107.07,21.56 79.45,20.08 62.45,26.48 C43.69,33.54 31.78,44.07 22.09,62.15 C16.62,72.34 14.70,80.33 14.66,93.00 C14.60,109.53 18.48,119.57 28.95,130.05 C37.95,139.05 47.08,142.96 59.14,142.99 C70.52,143.01 85.32,135.86 91.62,127.32 C99.19,117.02 102.30,101.62 99.10,90.19 C97.61,84.87 91.82,78.29 86.50,75.87 C81.66,73.66 71.35,73.41 66.65,75.37 C62.00,77.32 56.22,82.65 53.95,87.09 C48.95,96.91 59.04,110.53 69.82,108.51 C73.51,107.81 82.00,100.29 82.00,97.71 C82.00,93.98 72.33,90.04 70.49,93.02 C70.14,93.58 70.84,95.62 72.03,97.55 C73.77,100.37 73.96,101.34 72.98,102.53 C69.76,106.41 61.00,101.14 61.00,95.33 C61.01,88.61 68.78,82.22 75.58,83.32 C82.00,84.36 85.58,86.82 87.89,91.79 L 90.08 96.50 L 87.49 102.86 C83.95,111.54 81.48,114.58 75.61,117.51 C69.37,120.61 64.91,120.64 58.50,117.62 C49.56,113.41 45.66,106.84 45.78,96.22 C45.96,80.34 59.33,68.00 76.36,68.00 C89.07,68.00 98.38,73.88 103.57,85.19 C106.15,90.81 106.46,92.54 106.40,101.00 C106.34,108.30 105.80,111.83 104.09,116.23 C99.42,128.27 89.98,139.07 79.02,144.91 C75.83,146.61 72.95,148.68 72.63,149.51 C69.89,156.66 87.38,165.74 109.00,168.39 Z" fill="rgb(70,43,11)"/>
<path d="M 45.50 128.44 C49.57,130.54 53.60,130.41 55.21,128.11 C56.37,126.45 57.36,126.29 63.02,126.86 C71.54,127.70 74.00,127.30 74.00,125.05 C74.00,122.47 72.09,121.36 67.41,121.23 C63.74,121.13 59.62,119.27 54.75,115.52 C55.89,116.28 57.13,116.98 58.50,117.62 C64.91,120.64 69.37,120.61 75.61,117.51 C81.48,114.58 83.95,111.54 87.49,102.86 L 90.08 96.50 L 87.89 91.79 C85.58,86.82 82.00,84.36 75.58,83.32 C68.78,82.22 61.01,88.61 61.00,95.33 C61.00,101.14 69.76,106.41 72.98,102.53 C73.96,101.34 73.77,100.37 72.03,97.55 C70.84,95.62 70.14,93.58 70.49,93.02 C72.33,90.04 82.00,93.98 82.00,97.71 C82.00,100.29 73.51,107.81 69.82,108.51 C59.04,110.53 48.95,96.91 53.95,87.09 C56.22,82.65 62.00,77.32 66.65,75.37 C71.35,73.41 81.66,73.66 86.50,75.87 C91.82,78.29 97.61,84.87 99.10,90.19 C102.30,101.62 99.19,117.02 91.62,127.32 C85.32,135.86 70.52,143.01 59.14,142.99 C47.08,142.96 37.95,139.05 28.95,130.05 C18.48,119.57 14.60,109.53 14.66,93.00 C14.70,80.33 16.62,72.34 22.09,62.15 C22.61,61.17 23.14,60.22 23.67,59.29 C22.73,61.26 22.95,62.00 24.16,62.00 C24.79,62.00 27.13,63.86 29.36,66.13 C31.58,68.40 35.22,71.06 37.45,72.06 C42.82,74.45 45.85,74.43 48.39,71.98 C49.55,70.87 52.05,68.67 53.95,67.11 L 57.40 64.25 L 55.65 57.96 C54.10,52.38 50.64,43.77 47.95,38.78 C46.91,36.86 49.74,33.53 53.38,32.38 C54.49,32.03 56.02,31.12 56.77,30.37 C57.53,29.62 59.17,29.00 60.42,29.00 C62.58,29.00 62.69,29.35 62.62,36.25 C62.54,44.36 64.83,53.25 68.05,57.34 C69.92,59.72 70.82,60.00 76.45,60.00 C80.33,60.00 83.12,59.52 83.70,58.75 C84.21,58.06 85.43,54.01 86.40,49.75 L 88.17 42.00 L 91.94 42.00 C95.04,42.00 101.53,43.52 102.82,44.55 C103.00,44.70 101.99,48.48 100.57,52.96 C97.12,63.88 97.24,65.63 101.70,70.21 C103.74,72.29 105.97,74.00 106.66,74.00 C107.36,74.00 111.43,70.86 115.71,67.02 C120.00,63.19 124.08,60.04 124.80,60.02 C125.51,60.01 126.86,61.35 127.80,63.00 C129.68,66.31 134.42,69.00 138.38,69.00 C140.24,69.00 141.39,68.15 142.54,65.93 C144.22,62.67 143.73,57.00 141.75,57.00 C141.16,57.00 140.96,56.70 141.33,56.34 C141.69,55.97 140.87,54.20 139.50,52.40 C136.51,48.49 136.37,46.87 138.88,45.31 C140.48,44.31 141.19,44.63 143.75,47.53 C145.40,49.39 146.47,51.23 146.13,51.62 C145.78,52.00 146.03,52.02 146.67,51.65 C147.34,51.27 148.94,52.38 150.41,54.24 C154.45,59.37 153.43,56.49 149.15,50.71 C148.07,49.25 146.90,47.82 145.66,46.42 C153.01,54.38 158.83,63.97 162.82,74.74 C160.15,68.15 156.77,62.98 157.22,67.02 C157.46,69.11 157.03,69.55 154.50,69.83 C152.85,70.02 149.02,70.85 146.00,71.68 C142.98,72.52 138.17,73.78 135.32,74.49 C132.47,75.20 129.55,76.30 128.82,76.92 C128.10,77.54 125.47,79.39 123.00,81.02 C120.53,82.65 116.97,85.27 115.11,86.84 C111.95,89.48 111.70,90.14 111.52,96.09 C111.41,99.62 110.97,105.02 110.54,108.10 L 109.76 113.70 L 117.91 118.51 C122.39,121.15 125.92,123.73 125.76,124.22 C124.94,126.68 103.97,133.32 98.50,132.85 C95.93,132.63 94.32,133.43 90.39,136.90 C89.01,138.13 87.13,139.59 85.24,140.95 C93.48,134.80 100.34,125.92 104.09,116.23 C105.80,111.83 106.34,108.30 106.40,101.00 C106.46,92.54 106.15,90.81 103.57,85.19 C98.38,73.88 89.07,68.00 76.36,68.00 C59.33,68.00 45.96,80.34 45.78,96.22 C45.70,103.44 47.47,108.78 51.42,112.79 L 49.64 111.29 L 45.83 115.70 C38.80,123.82 38.77,124.96 45.50,128.44 ZM 109.00 168.39 C87.38,165.74 69.89,156.66 72.63,149.51 C72.95,148.68 75.83,146.61 79.02,144.91 C79.10,144.87 79.18,144.82 79.26,144.78 C75.19,147.14 74.05,148.15 75.75,147.88 C77.78,147.56 78.89,148.12 78.46,149.25 C77.40,152.03 91.76,158.25 104.00,160.31 C109.79,161.28 131.06,160.83 138.03,159.59 C150.28,157.40 160.35,152.65 167.16,145.84 C170.37,142.63 173.45,140.00 174.00,140.00 C174.09,140.00 174.18,140.00 174.26,140.01 C174.49,140.02 174.66,140.02 174.76,139.94 C174.77,139.93 174.78,139.92 174.79,139.91 C175.64,144.52 174.40,147.69 170.85,151.55 C165.82,157.00 153.93,163.07 142.50,166.01 C134.68,168.02 116.52,169.31 109.00,168.39 ZM 171.80 130.39 C170.78,127.28 170.03,124.44 170.02,123.58 C170.00,121.68 169.97,121.68 167.75,123.59 C166.51,124.65 163.81,126.38 161.74,127.42 C158.05,129.29 157.89,129.29 152.35,127.41 C143.67,124.47 143.09,123.77 147.11,121.00 C152.13,117.56 156.00,113.79 156.00,112.36 C156.00,110.47 147.48,107.06 141.10,106.41 C132.63,105.54 131.98,104.93 137.86,103.39 C144.17,101.73 156.83,95.57 160.64,92.30 C162.11,91.03 164.14,90.00 165.16,90.00 C166.23,90.00 166.81,89.84 166.85,88.78 C167.28,90.82 167.64,92.90 167.95,95.00 C168.55,99.12 169.42,108.35 169.90,115.50 C170.35,122.31 170.93,126.92 171.80,130.39 ZM 23.27 106.40 C27.49,108.30 42.08,103.84 43.47,100.22 C43.77,99.43 43.07,96.16 41.91,92.96 C40.32,88.62 39.10,86.87 37.08,86.03 C33.60,84.59 16.74,81.18 15.75,81.71 C15.34,81.94 15.03,85.35 15.07,89.31 C15.11,93.76 15.43,95.75 15.91,94.54 C16.64,92.67 16.75,92.69 18.26,95.04 C19.13,96.39 20.33,99.38 20.94,101.67 C21.54,103.97 22.59,106.09 23.27,106.40 ZM 76.82 23.15 C59.77,25.40 44.01,33.78 32.80,46.30 C40.57,37.38 50.01,31.17 62.45,26.48 C66.69,24.89 71.59,23.78 76.82,23.15 ZM 100.80 23.34 C95.26,22.68 89.31,22.40 83.96,22.58 C89.51,22.36 95.25,22.62 100.80,23.34 ZM 127.83 32.08 C125.18,30.56 122.46,29.20 119.70,28.05 C121.02,28.58 122.29,29.14 123.50,29.75 C124.97,30.48 126.41,31.26 127.83,32.08 Z" fill="rgb(228,164,14)"/>
<path d="M 171.80 130.39 C172.12,131.66 172.48,132.77 172.88,133.79 C173.82,136.13 174.46,138.13 174.79,139.91 C174.78,139.92 174.77,139.93 174.76,139.94 C174.66,140.02 174.49,140.02 174.26,140.01 C174.18,140.00 174.09,140.00 174.00,140.00 C173.45,140.00 170.37,142.63 167.16,145.84 C160.35,152.65 150.28,157.40 138.03,159.59 C131.06,160.83 109.79,161.28 104.00,160.31 C91.76,158.25 77.40,152.03 78.46,149.25 C78.89,148.12 77.78,147.56 75.75,147.88 C74.05,148.15 75.19,147.14 79.26,144.78 C81.31,143.67 83.31,142.38 85.24,140.95 C87.13,139.59 89.01,138.13 90.39,136.90 C94.32,133.43 95.93,132.63 98.50,132.85 C103.97,133.32 124.94,126.68 125.76,124.22 C125.92,123.73 122.39,121.15 117.91,118.51 L 109.76 113.70 L 110.54 108.10 C110.97,105.02 111.41,99.62 111.52,96.09 C111.70,90.14 111.95,89.48 115.11,86.84 C116.97,85.27 120.53,82.65 123.00,81.02 C125.47,79.39 128.10,77.54 128.82,76.92 C129.55,76.30 132.47,75.20 135.32,74.49 C138.17,73.78 142.98,72.52 146.00,71.68 C149.02,70.85 152.85,70.02 154.50,69.83 C157.03,69.55 157.46,69.11 157.22,67.02 C156.77,62.98 160.15,68.15 162.82,74.74 C164.49,79.22 165.84,83.91 166.85,88.78 C166.81,89.84 166.23,90.00 165.16,90.00 C164.14,90.00 162.11,91.03 160.64,92.30 C156.83,95.57 144.17,101.73 137.86,103.39 C131.98,104.93 132.63,105.54 141.10,106.41 C147.48,107.06 156.00,110.47 156.00,112.36 C156.00,113.79 152.13,117.56 147.11,121.00 C143.09,123.77 143.67,124.47 152.35,127.41 C157.89,129.29 158.05,129.29 161.74,127.42 C163.81,126.38 166.51,124.65 167.75,123.59 C169.97,121.68 170.00,121.68 170.02,123.58 C170.03,124.44 170.78,127.28 171.80,130.39 ZM 76.82 23.15 C79.14,22.86 81.53,22.68 83.96,22.58 C89.31,22.40 95.26,22.68 100.80,23.34 C107.59,24.23 114.11,25.81 119.70,28.05 C122.46,29.20 125.18,30.56 127.83,32.08 L 127.83 32.08 C134.47,35.95 140.45,40.78 145.66,46.42 C146.90,47.82 148.07,49.25 149.15,50.71 C153.43,56.49 154.45,59.37 150.41,54.24 C148.94,52.38 147.34,51.27 146.67,51.65 C146.03,52.02 145.78,52.00 146.13,51.62 C146.47,51.23 145.40,49.39 143.75,47.53 C141.19,44.63 140.48,44.31 138.88,45.31 C136.37,46.87 136.51,48.49 139.50,52.40 C140.87,54.20 141.69,55.97 141.33,56.34 C140.96,56.70 141.16,57.00 141.75,57.00 C143.73,57.00 144.22,62.67 142.54,65.93 C141.39,68.15 140.24,69.00 138.38,69.00 C134.42,69.00 129.68,66.31 127.80,63.00 C126.86,61.35 125.51,60.01 124.80,60.02 C124.08,60.04 120.00,63.19 115.71,67.02 C111.43,70.86 107.36,74.00 106.66,74.00 C105.97,74.00 103.74,72.29 101.70,70.21 C97.24,65.63 97.12,63.88 100.57,52.96 C101.99,48.48 103.00,44.70 102.82,44.55 C101.53,43.52 95.04,42.00 91.94,42.00 L 88.17 42.00 L 86.40 49.75 C85.43,54.01 84.21,58.06 83.70,58.75 C83.12,59.52 80.33,60.00 76.45,60.00 C70.82,60.00 69.92,59.72 68.05,57.34 C64.83,53.25 62.54,44.36 62.62,36.25 C62.69,29.35 62.58,29.00 60.42,29.00 C59.17,29.00 57.53,29.62 56.77,30.37 C56.02,31.12 54.49,32.03 53.38,32.38 C49.74,33.53 46.91,36.86 47.95,38.78 C50.64,43.77 54.10,52.38 55.65,57.96 L 57.40 64.25 L 53.95 67.11 C52.05,68.67 49.55,70.87 48.39,71.98 C45.85,74.43 42.82,74.45 37.45,72.06 C35.22,71.06 31.58,68.40 29.36,66.13 C27.13,63.86 24.79,62.00 24.16,62.00 C22.95,62.00 22.73,61.26 23.67,59.29 C26.49,54.41 29.49,50.11 32.80,46.30 C44.01,33.78 59.77,25.40 76.82,23.15 ZM 23.27 106.40 C22.59,106.09 21.54,103.97 20.94,101.67 C20.33,99.38 19.13,96.39 18.26,95.04 C16.75,92.69 16.64,92.67 15.91,94.54 C15.43,95.75 15.11,93.76 15.07,89.31 C15.03,85.35 15.34,81.94 15.75,81.71 C16.74,81.18 33.60,84.59 37.08,86.03 C39.10,86.87 40.32,88.62 41.91,92.96 C43.07,96.16 43.77,99.43 43.47,100.22 C42.08,103.84 27.49,108.30 23.27,106.40 ZM 45.50 128.44 C38.77,124.96 38.80,123.82 45.83,115.70 L 49.64 111.29 L 51.42 112.79 C52.40,113.78 53.51,114.69 54.75,115.52 C59.62,119.27 63.74,121.13 67.41,121.23 C72.09,121.36 74.00,122.47 74.00,125.05 C74.00,127.30 71.54,127.70 63.02,126.86 C57.36,126.29 56.37,126.45 55.21,128.11 C53.60,130.41 49.57,130.54 45.50,128.44 Z" fill="rgb(251,208,47)"/>
<path d="M 0.00 96.00 L 0.00 0.00 L 96.00 0.00 L 192.00 0.00 L 192.00 96.00 L 192.00 192.00 L 96.00 192.00 L 0.00 192.00 L 0.00 96.00 ZM 135.03 174.55 C156.14,171.37 174.67,161.51 179.91,150.68 C182.51,145.31 182.56,138.82 180.03,133.26 C177.45,127.57 176.00,119.25 176.00,110.07 C175.98,82.69 165.30,56.14 147.34,38.87 C135.06,27.06 120.98,19.71 105.40,16.98 C94.83,15.12 72.46,16.21 63.50,19.01 C38.17,26.94 19.14,46.45 10.84,73.00 C7.71,83.02 7.47,103.46 10.37,112.00 C17.12,131.81 30.70,144.71 48.88,148.56 C52.52,149.33 57.86,149.97 60.75,149.98 C65.91,150.00 66.00,150.05 66.00,153.00 C66.00,159.71 77.32,167.90 92.29,172.00 C107.21,176.10 119.79,176.85 135.03,174.55 Z" fill="rgb(254,254,253)"/>
</g>
</svg>
