<svg width="513" height="153" viewBox="0 0 513 153" fill="none" xmlns="http://www.w3.org/2000/svg">
<path d="M111.506 132.79C110.685 134.799 109.581 136.95 108.11 139.172C101.529 149.049 91.043 151.215 83.2315 152.233C77.1465 153.012 67.2547 153.012 63.1792 152.983C59.5989 153.026 48.9147 153.054 42.49 152.233C34.6785 151.229 24.1782 149.049 17.612 139.172C16.1402 136.964 15.0506 134.827 14.2298 132.832C11.3854 125.884 11.909 120.704 11.909 120.704L61.3253 119.601L62.8537 119.572L64.382 119.601L113.798 120.704C113.798 120.704 114.322 125.855 111.492 132.775L111.506 132.79Z" fill="#4ED21E"/>
<path d="M111.506 132.789L101.968 133.482C75.7314 135.35 49.3816 135.35 23.131 133.482L14.2298 132.846C11.3854 125.897 11.909 120.718 11.909 120.718L61.3253 119.614L62.8537 119.586L64.382 119.614L113.798 120.718C113.798 120.718 114.322 125.869 111.492 132.789H111.506Z" fill="#328613"/>
<path d="M113.445 67.749V78.1361H12.2775V67.749C12.2775 51.659 12.1077 44.4136 22.99 33.885C33.5752 23.6395 49.8633 23.3423 62.3589 23.3281H63.3778C75.8734 23.3281 92.1615 23.6253 102.747 33.885C113.615 44.4136 113.459 51.6732 113.459 67.749H113.445Z" fill="#4ED21E"/>
<path d="M38.7541 126.42C38.7541 126.42 34.3814 135.76 31.5087 135.76C28.636 135.76 24.2773 126.42 24.2773 126.42H38.7541Z" fill="#C7C6DA"/>
<path d="M86.9678 126.42C86.9678 126.42 91.3405 135.76 94.2132 135.76C97.0859 135.76 101.445 126.42 101.445 126.42H86.9678Z" fill="#C7C6DA"/>
<path d="M116.714 50.1733C116.289 51.4469 113.671 52.3526 113.487 52.9752C113.261 53.7536 113.077 58.7914 112.893 59.9377C112.27 63.8717 111.393 67.9332 108.421 70.7917C106.454 72.9569 101.883 73.7776 97.638 73.7776H82.0999C77.2884 73.7776 70.0288 69.9426 68.359 64.5935L64.7928 53.1592C64.3117 52.3384 63.5617 51.9139 62.8541 51.8997C62.1324 51.8997 61.3965 52.3384 60.9154 53.1592L57.3493 64.5935C55.6794 69.9568 48.4198 73.7776 43.6083 73.7776H28.0702C23.8248 73.7776 19.2681 72.9569 17.2869 70.7917C14.3151 67.9332 13.4378 63.8717 12.8151 59.9377C12.6312 58.8056 12.4472 53.7536 12.2208 52.9752C12.0368 52.3526 9.41881 51.4469 8.99427 50.1733C8.69709 49.2818 7.91878 42.0929 10.7773 42.0929H114.931C117.775 42.0929 117.011 49.2959 116.714 50.1733Z" fill="#070C07"/>
<path d="M18.4756 63.1503L25.3389 47.1593H36.7307L26.6833 70.0561C22.7493 70.0561 18.4756 67.9334 18.4756 63.1503Z" fill="#C7C6DA"/>
<path d="M73.8784 64.3673L81.8032 47.1593H93.1949L83.5296 69.1646C79.5956 69.1646 75.4351 68.0042 73.8643 64.3673H73.8784Z" fill="#C7C6DA"/>
<path d="M123.691 119.474C119.912 127.851 106.087 127.285 101.459 127.285H24.2638C19.6221 127.285 5.79629 127.851 2.03205 119.474C-1.35011 111.959 0.248989 97.2986 1.59336 90.1098C1.74903 89.289 1.89054 88.5673 2.03205 87.9588C3.39057 82.0577 9.09357 74.4443 20.8958 71.0904C32.2734 67.8498 50.5993 67.3545 61.7081 67.3262C61.9487 67.3262 62.2034 67.3262 62.4439 67.3262H62.9251C74.1046 67.3545 93.4777 67.8639 104.855 71.0904C116.643 74.4443 122.361 82.0577 123.719 87.9588C125.078 93.874 127.497 111.096 123.719 119.474H123.691Z" fill="#4ED21E"/>
<path d="M38.3579 127.283H24.2491C19.6074 127.283 5.78164 127.849 2.0174 119.472C-1.36476 111.957 0.23434 97.2967 1.57871 90.1078C6.23449 86.5275 16.2394 80.9236 35.3578 78.2773C31.9757 92.0466 29.9237 104.556 38.3579 127.283Z" fill="#3EA818"/>
<path d="M80.2462 16.1965C79.7509 14.5125 78.6046 11.5407 77.2037 12.4747C76.2414 13.1115 75.4772 14.7955 74.6281 16.0974C73.7507 17.4418 72.6469 17.1871 72.0809 15.687C69.9723 10.0548 67.0996 4.40847 65.5005 1.53575C64.5099 -0.233159 62.2599 -0.841669 60.5759 1.71972C57.7315 6.05001 53.4578 12.503 50.7549 23.3288C51.4766 27.7581 55.255 32.5129 57.7881 35.1592C60.9014 38.4282 63.6609 39.1924 66.2789 35.513C72.4771 26.8383 76.5244 25.4231 81.7887 24.4042C81.5198 19.6211 81.0245 18.8711 80.2462 16.1965Z" fill="#95E478"/>
<path d="M46.1414 94.2962C46.2122 95.4 44.9386 96.0368 44.047 95.3858C41.797 93.7301 39.83 91.2961 38.7262 88.3668C37.7356 85.7205 38.4997 84.8148 39.0516 84.461C39.9007 83.9091 41.2309 83.9233 42.6036 85.395C44.4574 87.4045 45.9292 90.7867 46.1414 94.2962Z" fill="#070C07"/>
<path d="M79.5668 94.2962C79.496 95.4 80.7697 96.0368 81.6612 95.3858C83.9113 93.7301 85.8783 91.2961 86.9821 88.3668C87.9726 85.7205 87.2085 84.8148 86.6566 84.461C85.8075 83.9091 84.4773 83.9233 83.1046 85.395C81.2508 87.4045 79.7791 90.7867 79.5668 94.2962Z" fill="#070C07"/>
<path d="M173.834 132.62C172.719 132.62 171.762 132.22 170.952 131.41C170.142 130.601 169.743 129.644 169.743 128.529V30.5271C169.743 29.4122 170.142 28.4551 170.952 27.6453C171.762 26.8355 172.719 26.4358 173.834 26.4358H217.523C227.031 26.4358 235.529 28.0239 243.007 31.2107C250.496 34.3975 256.48 39.0778 260.982 45.241C265.483 51.4147 267.881 59.0504 268.186 68.148C268.386 72.5022 268.491 76.3201 268.491 79.6015C268.491 82.8829 268.386 86.6061 268.186 90.75C267.776 100.258 265.451 108.125 261.202 114.341C256.953 120.556 251.169 125.163 243.828 128.15C236.497 131.137 227.978 132.62 218.26 132.62H173.834ZM207.669 103.045H217.534C219.753 103.045 221.751 102.614 223.529 101.751C225.296 100.889 226.737 99.5531 227.852 97.7336C228.966 95.9141 229.566 93.5897 229.671 90.75C229.871 87.8156 229.997 85.1863 230.05 82.8619C230.102 80.5376 230.102 78.1816 230.05 75.8047C229.997 73.4278 229.871 70.872 229.671 68.148C229.471 63.8989 228.125 60.8173 225.653 58.8926C223.171 56.968 220.216 56.0109 216.777 56.0109H207.679V103.045H207.669Z" fill="white"/>
<path d="M281.428 132.621C280.313 132.621 279.356 132.221 278.546 131.412C277.736 130.602 277.336 129.645 277.336 128.53V57.8314C277.336 56.7166 277.736 55.7595 278.546 54.9496C279.356 54.1398 280.313 53.7401 281.428 53.7401H308.584C309.699 53.7401 310.656 54.1503 311.466 54.9496C312.275 55.7595 312.675 56.7166 312.675 57.8314V128.53C312.675 129.645 312.265 130.602 311.466 131.412C310.656 132.221 309.699 132.621 308.584 132.621H281.428ZM282.195 45.3893C281.081 45.3893 280.124 44.9896 279.314 44.1798C278.504 43.3699 278.104 42.4128 278.104 41.298V22.945C278.104 21.8302 278.504 20.8731 279.314 20.0633C280.124 19.2534 281.081 18.8538 282.195 18.8538H307.837C308.952 18.8538 309.909 19.2639 310.719 20.0633C311.529 20.8731 311.928 21.8302 311.928 22.945V41.298C311.928 42.4128 311.518 43.3699 310.719 44.1798C309.909 44.9896 308.952 45.3893 307.837 45.3893H282.195Z" fill="white"/>
<path d="M329.387 132.622C328.272 132.622 327.315 132.222 326.505 131.412C325.695 130.602 325.295 129.645 325.295 128.53V57.8321C325.295 56.7173 325.695 55.7602 326.505 54.9504C327.315 54.1405 328.272 53.7409 329.387 53.7409H355.933C357.048 53.7409 358.005 54.151 358.815 54.9504C359.624 55.7602 360.024 56.7173 360.024 57.8321V62.8384C362.548 59.9041 366.04 57.4009 370.489 55.329C374.938 53.257 379.839 52.2158 385.203 52.2158C390.567 52.2158 395.163 53.4253 399.612 55.8549C404.061 58.2844 407.679 62.0286 410.455 67.077C413.232 72.1359 414.631 78.6567 414.631 86.65V128.52C414.631 129.635 414.22 130.592 413.421 131.402C412.611 132.212 411.654 132.611 410.539 132.611H381.564C380.449 132.611 379.492 132.212 378.682 131.402C377.872 130.592 377.472 129.635 377.472 128.52V87.7122C377.472 84.9777 376.81 82.9057 375.495 81.4964C374.181 80.0765 372.308 79.3719 369.879 79.3719C367.449 79.3719 365.577 80.0765 364.263 81.4964C362.948 82.9163 362.285 84.9882 362.285 87.7122V128.52C362.285 129.635 361.875 130.592 361.076 131.402C360.266 132.212 359.309 132.611 358.194 132.611H329.366L329.387 132.622Z" fill="white"/>
<path d="M468.354 134.147C459.046 134.147 451.211 132.885 444.837 130.35C438.464 127.826 433.583 124.029 430.197 118.97C426.81 113.911 424.864 107.695 424.36 100.312C424.254 97.9878 424.212 95.5898 424.212 93.1077C424.212 90.6256 424.265 88.2802 424.36 86.0505C424.864 78.562 426.936 72.3252 430.575 67.3189C434.215 62.3126 439.221 58.5473 445.594 56.0126C451.968 53.4884 459.551 52.2158 468.354 52.2158C477.157 52.2158 484.74 53.4779 491.114 56.0126C497.487 58.5368 502.494 62.3126 506.133 67.3189C509.772 72.3252 511.844 78.5726 512.349 86.0505C512.548 88.2802 512.654 90.6256 512.654 93.1077C512.654 95.5898 512.548 97.9878 512.349 100.312C511.844 107.695 509.898 113.911 506.511 118.97C503.125 124.029 498.245 127.826 491.871 130.35C485.498 132.874 477.662 134.147 468.354 134.147ZM468.354 109.872C471.289 109.872 473.108 109.042 473.813 107.369C474.517 105.697 474.97 103.099 475.18 99.5549C475.275 98.0404 475.327 95.9158 475.327 93.1813C475.327 90.4468 475.275 88.3222 475.18 86.8077C474.98 83.4737 474.517 80.9179 473.813 79.151C473.108 77.3841 471.289 76.5006 468.354 76.5006C465.42 76.5006 463.726 77.3841 462.969 79.151C462.212 80.9179 461.728 83.4737 461.528 86.8077C461.423 88.3222 461.381 90.4468 461.381 93.1813C461.381 95.9158 461.434 98.0404 461.528 99.5549C461.728 103.099 462.212 105.697 462.969 107.369C463.726 109.042 465.525 109.872 468.354 109.872Z" fill="white"/>
<path d="M485.103 45.5156C484.567 43.6098 483.298 40.2455 481.762 41.2995C480.71 42.0235 479.875 43.9293 478.936 45.3985C477.967 46.921 476.771 46.6335 476.152 44.93C473.832 38.5526 470.686 32.1539 468.933 28.896C467.85 26.8944 465.375 26.2024 463.529 29.109C460.415 34.0065 455.723 41.3314 452.743 53.5859C453.537 58.6111 457.682 63.9877 460.456 66.9901C463.87 70.6952 466.891 71.5469 469.768 67.3947C476.564 57.5677 480.968 55.7365 486.743 54.5973C486.444 49.1887 485.959 48.5606 485.103 45.5156Z" fill="#4ED21E"/>
</svg>
